# xmcd CD database file
#
# Track frame offsets:
#	150
#	16780
#	32915
#	57137
#	77320
#	112855
#	129142
#
# Disc length: 2065 seconds
#
# Revision: 1
# Processed by: cddbd v1.5.2PL0 Copyright (c) Steve Scherf et al.
# Submitted via: CDex 1.70beta2
#
DISCID=3f080f07
DTITLE=Esther Phillips - For All We Know
DYEAR=1975
DGENRE=Jazz
TTITLE0=Unforgettable (Irving Gordon)
TTITLE1=For All We Know (J.Fred Coots-Sam.M.Lewis)
TTITLE2=Pure Natural Love (Jackie DeShannon-G.Ballantyne)
TTITLE3=Fools Rush In (R.Bloom-J.Mercer)
TTITLE4=Going Out Of My Head (Teddy Randazzo-B.Weinstein)
TTITLE5=Fever (J.davenport-E.Cooley)
TTITLE6=Caravan
EXTD=YEAR: 1975
EXTT0=
EXTT1=
EXTT2=
EXTT3=
EXTT4=
EXTT5=
EXTT6=
PLAYORDER=
